<?xml version="1.0" encoding="UTF-8"?>
<svg xmlns="http://www.w3.org/2000/svg" xmlns:xlink="http://www.w3.org/1999/xlink" width="50px" height="50px" viewBox="0 0 50 50" version="1.1">
<g id="surface1">
<path style=" stroke:none;fill-rule:nonzero;fill:rgb(98.823529%,60.392157%,24.705882%);fill-opacity:1;" d="M 6.652344 0 L 43.347656 0 C 47.023438 0 50 2.976562 50 6.652344 L 50 43.347656 C 50 47.023438 47.023438 50 43.347656 50 L 6.652344 50 C 2.976562 50 0 47.023438 0 43.347656 L 0 6.652344 C 0 2.976562 2.976562 0 6.652344 0 Z M 6.652344 0 "/>
<path style=" stroke:none;fill-rule:nonzero;fill:rgb(96.862745%,96.862745%,96.862745%);fill-opacity:1;" d="M 25.515625 9.296875 C 25.597656 9.300781 25.679688 9.316406 25.757812 9.339844 L 39.972656 15.046875 C 40.238281 15.160156 40.414062 15.421875 40.414062 15.714844 L 40.414062 34.875 C 40.40625 35.160156 40.234375 35.414062 39.972656 35.527344 L 25.757812 41.207031 C 25.589844 41.28125 25.398438 41.28125 25.226562 41.207031 L 11.019531 35.527344 C 10.753906 35.417969 10.582031 35.160156 10.574219 34.875 L 10.574219 15.6875 C 10.585938 15.40625 10.761719 15.160156 11.019531 15.046875 L 25.242188 9.339844 C 25.332031 9.304688 25.429688 9.289062 25.527344 9.296875 Z M 25.515625 10.753906 L 13.203125 15.6875 L 17.714844 17.476562 L 29.3125 12.304688 Z M 32.484375 13.539062 L 20.484375 18.597656 L 25.496094 20.597656 L 37.78125 15.6875 Z M 39.007812 16.714844 L 26.214844 21.84375 L 26.214844 39.492188 L 38.992188 34.382812 L 38.992188 16.734375 Z M 12.015625 16.714844 L 12.015625 34.382812 L 24.78125 39.492188 L 24.78125 21.84375 L 19.8125 19.863281 L 19.8125 25.28125 L 16.992188 24.214844 L 16.992188 18.722656 L 12.019531 16.734375 Z M 12.015625 16.714844 "/>
</g>
</svg>
