<svg xmlns="http://www.w3.org/2000/svg" viewBox="0 0 103 103"><defs><style>.cls-1{fill:#fc9a3f;}.cls-2{fill:#f7f7f7;}</style></defs><g id="Layer_2" data-name="Layer 2"><g id="Icons_modules" data-name="Icons modules"><rect class="cls-1" width="103" height="103" rx="13.7"/><path class="cls-2" d="M52.56,19.15a2.24,2.24,0,0,1,.5.09L82.34,31a1.49,1.49,0,0,1,.91,1.37V71.84a1.51,1.51,0,0,1-.91,1.35L53.06,84.89a1.38,1.38,0,0,1-1.09,0L22.7,73.19a1.52,1.52,0,0,1-.92-1.35V32.32A1.52,1.52,0,0,1,22.7,31L52,19.24a1.37,1.37,0,0,1,.59-.09Zm0,3L27.2,32.32,36.49,36,60.38,25.35Zm14.36,5.74L42.2,38.31l10.32,4.12L77.83,32.32Zm13.44,6.54L54,45V81.35L80.32,70.83V34.47Zm-55.61,0V70.83L51.05,81.35V45L40.81,40.92V52.08L35,49.88V38.57l-10.24-4.1Z"/></g></g></svg>